<?xml version="1.0" encoding="iso-8859-1"?>
<!-- Generator: Adobe Illustrator 18.0.0, SVG Export Plug-In . SVG Version: 6.00 Build 0)  -->
<!DOCTYPE svg PUBLIC "-//W3C//DTD SVG 1.1//EN" "http://www.w3.org/Graphics/SVG/1.1/DTD/svg11.dtd">
<svg version="1.1" id="Capa_1" xmlns="http://www.w3.org/2000/svg" xmlns:xlink="http://www.w3.org/1999/xlink" x="0px" y="0px"
	 viewBox="0 0 466.329 466.329" style="enable-background:new 0 0 466.329 466.329;" xml:space="preserve">
<g>
	<path d="M214.662,172.721l44.35,25.604c0.619,0.357,1.31,0.536,2,0.536c0.689,0,1.38-0.178,1.998-0.535l131.809-76
		c1.238-0.714,2.002-2.035,2.002-3.464c0-1.429-0.762-2.75-2-3.465l-44.354-25.607c-1.237-0.714-2.761-0.715-3.998-0.001
		l-131.805,76.003c-1.238,0.714-2.002,2.035-2.002,3.464C212.662,170.685,213.424,172.006,214.662,172.721z M348.466,97.871
		l36.351,20.987l-123.804,71.384l-36.347-20.983L348.466,97.871z"/>
	<path d="M466.325,117.348c0-0.001-0.762-2.752-2-3.467l-111.145-64.17c-1.237-0.714-2.761-0.715-3.998-0.001L18.896,240.166
		c-1.237,0.714-2,2.032-2.002,3.46l0,24H4c-2.209,0-4,1.791-4,4v15.613c0,2.209,1.791,4,4,4s4-1.791,4-4v-11.613h8.894v73.369
		c0,1.429,0.763,2.75,2,3.464l111.135,64.16c0.619,0.357,1.31,0.536,2,0.536c0.689,0,1.38-0.178,1.998-0.535l67.981-39.204
		c1.01,5.203,3.648,9.225,7.638,11.529c2.305,1.331,4.854,1.963,7.515,1.963c8.563,0,18.263-6.557,24.569-17.48
		c4.342-7.52,6.083-15.396,5.352-21.995l136.636-78.781c0.942,5.215,3.533,9.482,7.716,11.898c2.306,1.331,4.855,1.963,7.516,1.963
		c8.563,0,18.263-6.557,24.569-17.48c4.43-7.673,6.154-15.717,5.305-22.396l35.504-20.465c1.238-0.714,2.002-2.035,2.002-3.465
		L466.325,117.348z M458.329,141.285l-117.248,67.604V191.87l117.248-67.604V141.285z M333.081,213.502l-28.8,16.606v-17.019
		l28.8-16.606V213.502z M296.281,234.72l-104.223,60.094v-17.018l104.223-60.094V234.72z M184.059,299.427l-28.799,16.605v-17.018
		l28.799-16.605V299.427z M147.26,320.645l-11.231,6.476v-17.018l11.231-6.476V320.645z M147.26,371.646l-11.231,6.479v-41.77
		l11.231-6.476V371.646z M128.028,327.116L24.894,267.575V250.56l103.135,59.541V327.116z M24.894,276.813l92.205,53.231h-1.964
		c-2.209,0-4,1.791-4,4v15.613c0,2.209,1.791,4,4,4s4-1.791,4-4v-11.613h8.894v40.078L24.894,318.581V276.813z M136.028,387.361
		l11.231-6.479v18.871l-11.231,6.477V387.361z M155.26,325.267l10.399-5.996v69.872l-10.399,5.997V325.267z M173.659,314.658
		l10.399-5.996v69.87l-10.399,5.997V314.658z M192.059,304.049l30.913-17.824v35.487l-30.913,17.825V304.049z M230.972,281.612
		l28.207-16.264v35.486l-28.207,16.264V281.612z M267.179,260.735l29.103-16.78v35.486l-29.103,16.781V260.735z M304.281,239.342
		l10.399-5.996v69.876l-10.399,5.996V239.342z M322.681,228.733l10.4-5.997v69.876l-10.4,5.997V228.733z M341.081,218.124
		l22.409-12.921v35.488l-22.409,12.921V218.124z M371.49,200.59l28.206-16.263v35.489l-28.206,16.263V200.59z M407.696,179.714
		l23.227-13.392v35.489l-23.227,13.392V179.714z M438.923,161.709l19.406-11.189v35.489l-19.406,11.189V161.709z M351.18,57.793
		l103.142,59.549L132.029,303.173l-103.132-59.54L351.18,57.793z M24.894,327.819l103.135,59.541v18.866l-8.491-4.902v-9.997
		l-11.45-6.245v9.633l-66.032-38.121v-10.024l-11.45-6.245v9.659l-5.713-3.298V327.819z M234.802,369.427
		c-5.721,9.908-15.605,15.796-21.156,12.588c-3.338-1.927-3.993-6.351-4.087-8.817c-0.185-4.867,1.423-10.625,4.41-15.799
		c4.658-8.068,12.075-13.466,17.667-13.466c1.275,0,2.458,0.282,3.489,0.877C240.674,348.015,240.522,359.518,234.802,369.427z
		 M239.125,337.882c-9.725-5.614-23.818,1.201-32.084,15.517c-2.778,4.81-4.554,9.944-5.208,14.881l-9.775,5.637v-25.147
		l104.223-60.095v25.155l-51.605,29.754C243.338,341.203,241.487,339.246,239.125,337.882z M416.591,265.032
		c-5.722,9.91-15.608,15.791-21.157,12.589c-5.549-3.204-5.397-14.707,0.323-24.617c5.723-9.91,15.61-15.791,21.157-12.589
		C422.463,243.62,422.312,255.123,416.591,265.032z M426.278,238.869c-1.322-2.236-3.109-4.08-5.364-5.382
		c-9.726-5.614-23.819,1.201-32.085,15.517c-2.779,4.813-4.489,9.771-5.172,14.448L341.081,288v-25.154l117.248-67.603v25.151
		L426.278,238.869z"/>
</g>
<g>
</g>
<g>
</g>
<g>
</g>
<g>
</g>
<g>
</g>
<g>
</g>
<g>
</g>
<g>
</g>
<g>
</g>
<g>
</g>
<g>
</g>
<g>
</g>
<g>
</g>
<g>
</g>
<g>
</g>
</svg>
