<?xml version="1.0" encoding="iso-8859-1"?>
<!-- Generator: Adobe Illustrator 19.0.0, SVG Export Plug-In . SVG Version: 6.00 Build 0)  -->
<svg version="1.1" id="Capa_1" xmlns="http://www.w3.org/2000/svg" xmlns:xlink="http://www.w3.org/1999/xlink" x="0px" y="0px"
	 viewBox="0 0 511.988 511.988" style="enable-background:new 0 0 511.988 511.988;" xml:space="preserve">
<g>
	<g>
		<path d="M372.02,307.982H156.071c-2.211,0-4,1.789-4,3.999c0,2.211,1.79,4,4,4H372.02c2.211,0,3.998-1.789,3.998-4
			C376.018,309.771,374.231,307.982,372.02,307.982z"/>
	</g>
</g>
<g>
	<g>
		<path d="M68.201,307.981c-0.437-0.016-43.654-1.218-55.194-3.89c-3.464-0.796-5.448-13.277-4.905-23.9
			c0.109-2.203-1.585-4.077-3.792-4.194c-2.065-0.133-4.081,1.578-4.198,3.788c-0.352,6.842-0.598,29.392,11.091,32.102
			c12.314,2.852,54.971,4.047,56.78,4.094c0.039,0,0.074,0,0.113,0c2.155,0,3.933-1.718,3.995-3.892
			C72.149,309.887,70.407,308.043,68.201,307.981z"/>
	</g>
</g>
<g>
	<g>
		<path d="M91.794,212.018c-6.358,0.468-62.419,4.674-72.955,8.193C9.653,223.277,8.31,240.035,8.13,246.314l-6.85,6.854
			c-1.562,1.561-1.562,4.092,0,5.654c0.781,0.781,1.804,1.172,2.827,1.172s2.047-0.391,2.828-1.171l7.998-7.998
			c0.75-0.749,1.171-1.764,1.171-2.823c0.008-8.713,2.266-19.203,5.265-20.206c8.115-2.707,54.011-6.55,71.011-7.803
			c2.202-0.16,3.858-2.078,3.694-4.28C95.914,213.51,93.907,211.854,91.794,212.018z"/>
	</g>
</g>
<g>
	<g>
		<path d="M373.029,212.07l-87.332-39.698c-0.523-0.238-1.086-0.359-1.654-0.359h-15.998c-1.741,0-3.28,1.125-3.811,2.777
			c-0.528,1.656,0.07,3.469,1.484,4.476l55.986,39.991c1.805,1.288,4.295,0.875,5.576-0.93c1.289-1.797,0.867-4.296-0.93-5.577
			l-45.832-32.739h2.656l87.189,39.632c0.422,0.196,0.883,0.313,1.344,0.348c115.097,8.853,132.281,36.378,132.281,51.999v32.32
			l-44.326,3.687c-2.193,0.18-3.834,2.11-3.646,4.312c0.172,2.094,1.92,3.672,3.975,3.672c0.109,0,0.227,0,0.337-0.018l47.988-3.992
			c2.078-0.171,3.672-1.897,3.672-3.983v-35.999C511.988,249.577,487.861,221.009,373.029,212.07z"/>
	</g>
</g>
<g>
	<g>
		<path d="M416.011,259.994c-22.051,0-39.992,17.941-39.992,39.99c0,22.05,17.941,39.991,39.992,39.991
			c22.048,0,39.99-17.941,39.99-39.991C456.001,277.935,438.06,259.994,416.011,259.994z M416.011,331.977
			c-17.644,0-31.994-14.356-31.994-31.993c0-17.636,14.349-31.992,31.994-31.992c17.634,0,31.992,14.357,31.992,31.992
			C448.003,317.621,433.646,331.977,416.011,331.977z"/>
	</g>
</g>
<g>
	<g>
		<path d="M416.245,295.985h-0.078c-2.211,0-3.961,1.789-3.961,3.999c0,2.211,1.836,3.999,4.039,3.999
			c2.209,0,3.998-1.788,3.998-3.999C420.243,297.774,418.454,295.985,416.245,295.985z"/>
	</g>
</g>
<g>
	<g>
		<path d="M416.011,275.99c-2.211,0-4,1.789-4,3.999v7.998c0,2.211,1.789,3.999,4,3.999c2.209,0,3.998-1.788,3.998-3.999v-7.998
			C420.009,277.779,418.22,275.99,416.011,275.99z"/>
	</g>
</g>
<g>
	<g>
		<path d="M416.011,307.982c-2.211,0-4,1.789-4,3.999v7.998c0,2.211,1.789,4,4,4c2.209,0,3.998-1.789,3.998-4v-7.998
			C420.009,309.771,418.22,307.982,416.011,307.982z"/>
	</g>
</g>
<g>
	<g>
		<path d="M410.354,288.675l-5.654-5.654c-1.562-1.562-4.093-1.562-5.654,0c-1.562,1.561-1.562,4.092,0,5.654l5.654,5.655
			c0.781,0.78,1.805,1.171,2.828,1.171c1.022,0,2.045-0.391,2.826-1.171C411.916,292.768,411.916,290.237,410.354,288.675z"/>
	</g>
</g>
<g>
	<g>
		<path d="M432.973,311.294l-5.654-5.654c-1.562-1.562-4.092-1.562-5.654,0c-1.562,1.562-1.562,4.092,0,5.654l5.654,5.655
			c0.781,0.781,1.805,1.172,2.828,1.172c1.024,0,2.047-0.391,2.826-1.172C434.535,315.388,434.535,312.856,432.973,311.294z"/>
	</g>
</g>
<g>
	<g>
		<path d="M404.013,295.985h-7.998c-2.211,0-4,1.789-4,3.999c0,2.211,1.789,3.999,4,3.999h7.998c2.21,0,4-1.788,4-3.999
			C408.013,297.774,406.224,295.985,404.013,295.985z"/>
	</g>
</g>
<g>
	<g>
		<path d="M436.005,295.985h-7.998c-2.211,0-3.998,1.789-3.998,3.999c0,2.211,1.787,3.999,3.998,3.999h7.998
			c2.211,0,4-1.788,4-3.999C440.005,297.774,438.216,295.985,436.005,295.985z"/>
	</g>
</g>
<g>
	<g>
		<path d="M410.354,305.64c-1.562-1.562-4.092-1.562-5.654,0l-5.654,5.654c-1.562,1.562-1.562,4.093,0,5.655
			c0.779,0.781,1.803,1.172,2.826,1.172s2.047-0.391,2.828-1.172l5.654-5.655C411.916,309.733,411.916,307.202,410.354,305.64z"/>
	</g>
</g>
<g>
	<g>
		<path d="M432.973,283.021c-1.56-1.562-4.092-1.562-5.654,0l-5.654,5.654c-1.562,1.562-1.562,4.093,0,5.655
			c0.781,0.78,1.805,1.171,2.828,1.171c1.021,0,2.045-0.391,2.826-1.171l5.654-5.655
			C434.535,287.113,434.535,284.583,432.973,283.021z"/>
	</g>
</g>
<g>
	<g>
		<path d="M112.249,259.994c-22.05,0-39.99,17.941-39.99,39.99c0,22.05,17.94,39.991,39.99,39.991
			c22.05,0,39.991-17.941,39.99-39.991C152.239,277.935,134.299,259.994,112.249,259.994z M112.249,331.977
			c-17.64,0-31.992-14.356-31.992-31.993c0-17.636,14.351-31.992,31.992-31.992c17.641,0,31.993,14.357,31.992,31.992
			C144.241,317.621,129.889,331.977,112.249,331.977z"/>
	</g>
</g>
<g>
	<g>
		<path d="M112.488,295.985h-0.078c-2.21,0-3.96,1.789-3.96,3.999c0,2.211,1.831,3.999,4.038,3.999c2.21,0,3.999-1.788,3.999-3.999
			C116.487,297.774,114.698,295.985,112.488,295.985z"/>
	</g>
</g>
<g>
	<g>
		<path d="M112.249,275.99c-2.21,0-3.999,1.789-3.999,3.999v7.998c0,2.211,1.789,3.999,3.999,3.999c2.211,0,3.999-1.788,3.999-3.999
			v-7.998C116.248,277.779,114.459,275.99,112.249,275.99z"/>
	</g>
</g>
<g>
	<g>
		<path d="M112.249,307.982c-2.21,0-3.999,1.789-3.999,3.999v7.998c0,2.211,1.789,4,3.999,4c2.211,0,3.999-1.789,3.999-4v-7.998
			C116.248,309.771,114.459,307.982,112.249,307.982z"/>
	</g>
</g>
<g>
	<g>
		<path d="M106.595,288.675l-5.655-5.654c-1.562-1.562-4.093-1.562-5.655,0c-1.562,1.561-1.562,4.092,0,5.654l5.655,5.655
			c0.781,0.78,1.804,1.171,2.827,1.171s2.046-0.391,2.828-1.171C108.157,292.768,108.157,290.237,106.595,288.675z"/>
	</g>
</g>
<g>
	<g>
		<path d="M129.214,311.294l-5.655-5.654c-1.561-1.562-4.092-1.562-5.654,0c-1.562,1.562-1.562,4.092,0,5.654l5.654,5.655
			c0.782,0.781,1.805,1.172,2.828,1.172s2.046-0.391,2.827-1.172C130.776,315.388,130.776,312.856,129.214,311.294z"/>
	</g>
</g>
<g>
	<g>
		<path d="M100.252,295.985h-7.998c-2.21,0-3.999,1.789-3.999,3.999c0,2.211,1.789,3.999,3.999,3.999h7.998
			c2.211,0,3.999-1.788,3.999-3.999C104.251,297.774,102.462,295.985,100.252,295.985z"/>
	</g>
</g>
<g>
	<g>
		<path d="M132.244,295.985h-7.998c-2.21,0-3.999,1.789-3.999,3.999c0,2.211,1.789,3.999,3.999,3.999h7.998
			c2.211,0,3.999-1.788,3.999-3.999C136.243,297.774,134.455,295.985,132.244,295.985z"/>
	</g>
</g>
<g>
	<g>
		<path d="M106.594,305.64c-1.562-1.562-4.093-1.562-5.655,0l-5.655,5.654c-1.562,1.562-1.562,4.093,0,5.655
			c0.782,0.781,1.805,1.172,2.828,1.172s2.047-0.391,2.827-1.172l5.655-5.655C108.156,309.733,108.156,307.202,106.594,305.64z"/>
	</g>
</g>
<g>
	<g>
		<path d="M129.214,283.021c-1.562-1.562-4.093-1.562-5.655,0l-5.654,5.654c-1.562,1.562-1.562,4.093,0,5.655
			c0.781,0.78,1.804,1.171,2.827,1.171s2.046-0.391,2.827-1.171l5.655-5.655C130.776,287.113,130.776,284.583,129.214,283.021z"/>
	</g>
</g>
<g>
	<g>
		<path d="M220.056,236H204.06c-2.211,0-3.999,1.788-3.999,3.999c0,2.21,1.788,3.999,3.999,3.999h15.996
			c2.21,0,3.999-1.789,3.999-3.999C224.055,237.788,222.266,236,220.056,236z"/>
	</g>
</g>
<g>
	<g>
		<path d="M140.075,188.011h-7.998c-2.21,0-3.999,1.789-3.999,3.999c0,2.21,1.789,3.999,3.999,3.999h7.998
			c2.21,0,3.999-1.789,3.999-3.999C144.074,189.8,142.286,188.011,140.075,188.011z"/>
	</g>
</g>
<g>
	<g>
		<path d="M151.65,206.218l-7.998-15.996c-0.992-1.977-3.39-2.765-5.366-1.789c-1.977,0.988-2.777,3.39-1.789,5.366l7.998,15.996
			c0.703,1.402,2.113,2.21,3.581,2.21c0.602,0,1.211-0.136,1.785-0.421C151.838,210.596,152.638,208.194,151.65,206.218z"/>
	</g>
</g>
<g>
	<g>
		<path d="M132.076,188.011c-2.21,0-3.999,1.789-3.999,3.999v15.996c0,2.21,1.789,3.999,3.999,3.999c2.211,0,4-1.788,3.999-3.999
			V192.01C136.075,189.8,134.287,188.011,132.076,188.011z"/>
	</g>
</g>
<g>
	<g>
		<path d="M228.054,188.011h-7.998c-2.21,0-3.999,1.789-3.999,3.999c0,2.21,1.789,3.999,3.999,3.999h7.998
			c2.21,0,3.999-1.789,3.999-3.999C232.053,189.8,230.264,188.011,228.054,188.011z"/>
	</g>
</g>
<g>
	<g>
		<path d="M239.63,206.218l-7.998-15.996c-0.992-1.977-3.386-2.765-5.366-1.789c-1.977,0.988-2.777,3.39-1.789,5.366l7.998,15.996
			c0.703,1.402,2.113,2.21,3.581,2.21c0.602,0,1.211-0.136,1.785-0.421C239.818,210.596,240.618,208.194,239.63,206.218z"/>
	</g>
</g>
<g>
	<g>
		<path d="M220.056,188.011c-2.21,0-3.999,1.789-3.999,3.999v15.996c0,2.21,1.789,3.999,3.999,3.999c2.21,0,3.999-1.788,3.999-3.999
			V192.01C224.055,189.8,222.266,188.011,220.056,188.011z"/>
	</g>
</g>
<g>
	<g>
		<path d="M502.677,251.996h-26.682c-2.209,0-3.998,1.789-3.998,3.999c0,2.211,1.789,3.999,3.998,3.999h26.682
			c2.211,0,4-1.788,4-3.999C506.677,253.785,504.888,251.996,502.677,251.996z"/>
	</g>
</g>
<g>
	<g>
		<path d="M475.995,232.625c-2.209,0-3.998,1.789-3.998,4v19.37c0,2.211,1.789,3.999,3.998,3.999c2.211,0,4-1.788,4-3.999v-19.37
			C479.995,234.414,478.206,232.625,475.995,232.625z"/>
	</g>
</g>
<g>
	<g>
		<path d="M308.036,212.005H92.086c-2.21,0-3.999,1.789-3.999,4c0,2.21,1.789,3.999,3.999,3.999h215.95
			c2.209,0,3.998-1.789,3.998-3.999C312.034,213.794,310.245,212.005,308.036,212.005z"/>
	</g>
</g>
<g>
	<g>
		<path d="M28.102,243.998H12.105c-2.21,0-3.999,1.789-3.999,3.999c0,2.21,1.789,3.999,3.999,3.999h15.996
			c2.211,0,3.999-1.789,4-3.999C32.101,245.787,30.312,243.998,28.102,243.998z"/>
	</g>
</g>
<g>
	<g>
		<path d="M28.101,218.355c-2.211,0-4,1.789-4,3.999v25.643c0,2.21,1.79,3.999,4,3.999c2.211,0,3.999-1.789,3.999-3.999v-25.643
			C32.1,220.144,30.312,218.355,28.101,218.355z"/>
	</g>
</g>
<g>
	<g>
		<path d="M12.773,275.99H4.107c-2.21,0-3.999,1.789-3.999,3.999c0,2.211,1.789,3.999,3.999,3.999h8.666
			c2.21,0,3.999-1.788,3.999-3.999C16.772,277.779,14.983,275.99,12.773,275.99z"/>
	</g>
</g>
<g>
	<g>
		<path d="M4.107,251.996c-2.21,0-3.999,1.789-3.999,3.999v15.996c0,2.211,1.789,3.999,3.999,3.999c2.211,0,3.999-1.788,3.999-3.999
			v-15.996C8.106,253.785,6.318,251.996,4.107,251.996z"/>
	</g>
</g>
<g>
</g>
<g>
</g>
<g>
</g>
<g>
</g>
<g>
</g>
<g>
</g>
<g>
</g>
<g>
</g>
<g>
</g>
<g>
</g>
<g>
</g>
<g>
</g>
<g>
</g>
<g>
</g>
<g>
</g>
</svg>
