<svg xmlns="http://www.w3.org/2000/svg" viewBox="0 0 282.37 95.89"><defs><style>.cls-1{font-size:36px;font-family:CopperplateGothic-Light, Copperplate Gothic Light;font-weight:300;}.cls-2{letter-spacing:-0.01em;}.cls-3{letter-spacing:-0.01em;}.cls-4{font-size:18px;font-family:Microsoft-Yi-Baiti, Microsoft Yi Baiti;font-style:italic;letter-spacing:0.2em;}.cls-4,.cls-5{fill:#ff1d25;}.cls-6{fill:none;}</style></defs><g id="katman_2" data-name="katman 2"><g id="katman_1-2" data-name="katman 1"><text class="cls-1" transform="translate(5.93 72.67)">BU<tspan class="cls-2" x="56.44" y="0">L</tspan><tspan x="80.53" y="0">UT TI</tspan><tspan class="cls-3" x="175.99" y="0">C</tspan><tspan x="206.19" y="0">ARI</tspan></text><text class="cls-4" transform="translate(177.37 91.45)">OTOMATIV</text><g id="surface1"><path d="M68.89,35.38A2.17,2.17,0,1,0,71,33.45,2.05,2.05,0,0,0,68.89,35.38Z"/><path d="M23,35.38a2.17,2.17,0,1,0,2.16-1.93A2.06,2.06,0,0,0,23,35.38Z"/><path d="M60.28,30.88v2.57h3.2s0,0,0-.06a7.13,7.13,0,0,1,.57-1.3s0-.05.06-.08A8,8,0,0,1,64.92,31l.06-.07Z"/><path d="M57.41,36H48.8V38.6h8.61Z"/><path d="M57.41,33.45H48.8V30.88h8.61Z"/><path d="M80.37,30.88H77.11l0,.07A6.49,6.49,0,0,1,77.94,32s0,.06.06.09a7.17,7.17,0,0,1,.58,1.3s0,0,0,.06h1.76Z"/><path class="cls-5" d="M43.06,28.31h2.87V3.86A4.11,4.11,0,0,0,41.62,0H39.15l.72,2.57h1.75a1.38,1.38,0,0,1,1.44,1.29Z"/><path d="M66.05,35.11a1.24,1.24,0,0,0,0,.27,5.05,5.05,0,0,0,10,0l0-.27,0-.23a5.08,5.08,0,0,0-9.92,0Z"/><path d="M20.12,35.11l0,.27a4.79,4.79,0,0,0,5,4.51,4.79,4.79,0,0,0,5-4.51,1.24,1.24,0,0,0,0-.27l0-.23a4.83,4.83,0,0,0-5-4,4.81,4.81,0,0,0-5,4Z"/><path d="M7.21,35.11a1.24,1.24,0,0,0,0,.27,4.79,4.79,0,0,0,5,4.51,4.79,4.79,0,0,0,5-4.51,1.24,1.24,0,0,0,0-.27l0-.23a4.83,4.83,0,0,0-5-4,4.83,4.83,0,0,0-5,4Z"/><path d="M33,30.88V36H45.93V30.88Z"/><path d="M0,32.7v.75H4.64s0,0,0-.06a6.5,6.5,0,0,1,.57-1.3L5.3,32A8,8,0,0,1,6.08,31l0-.07H2Z"/><path d="M58.51,10.29H48.8v18H80.37v-.49a3.58,3.58,0,0,0-3.76-3.37h-6a3.78,3.78,0,0,0-3.36,1.86l-2.57-1.15a6.73,6.73,0,0,1,5.93-3.29h6a8.65,8.65,0,0,1,.89.08v-.54a1.33,1.33,0,0,0-1.15-1.26L64.3,18a1.43,1.43,0,0,1-1-.69L59.79,11A1.45,1.45,0,0,0,58.51,10.29ZM51.67,23.16h5.74v2.57H51.67Zm7.13-9.32L60.24,19a1.2,1.2,0,0,1-.26,1.1,1.53,1.53,0,0,1-1.14.5H53.1a1.37,1.37,0,0,1-1.43-1.29V14.15a1.36,1.36,0,0,1,1.43-1.28h4.31A1.41,1.41,0,0,1,58.8,13.84Z"/><path d="M10.05,35.38a2.05,2.05,0,0,0,2.15,1.94,1.95,1.95,0,1,0,0-3.87A2.05,2.05,0,0,0,10.05,35.38Z"/></g><line class="cls-6" x1="180.37" y1="95.89" x2="272.37" y2="95.89"/></g></g></svg>