<svg xmlns="http://www.w3.org/2000/svg" viewBox="0 0 272.37 95.89"><defs><style>.cls-1{fill:#ff1d25;}.cls-2{fill:none;}</style></defs><g id="katman_2" data-name="katman 2"><g id="katman_1-2" data-name="katman 1"><path d="M20.53,57.79a3.75,3.75,0,0,1,2.79,3.87,4.27,4.27,0,0,1-.75,2.5,4,4,0,0,1-2,1.5A11.32,11.32,0,0,1,17,66.1H7.68v-.37a1.11,1.11,0,0,0,.6-.32,1.17,1.17,0,0,0,.15-.69V51.49a1.23,1.23,0,0,0-.15-.7,1,1,0,0,0-.6-.31v-.37h9.54a10.05,10.05,0,0,1,2.33.22,4.45,4.45,0,0,1,1.62.74,3.83,3.83,0,0,1,1.62,3.32A3.58,3.58,0,0,1,20.53,57.79ZM10.27,57h6.17a18.37,18.37,0,0,0,2-.08,5,5,0,0,0,1.2-.31,2.28,2.28,0,0,0,1.06-.87,2.65,2.65,0,0,0-.3-3.11,2.7,2.7,0,0,0-1.4-.79,11.34,11.34,0,0,0-2.64-.22H10.27Zm0,7.57H16.7a16.93,16.93,0,0,0,2.05-.09A4.22,4.22,0,0,0,20,64.14a2.36,2.36,0,0,0,1.09-1,3,3,0,0,0-1.76-4.39,11.42,11.42,0,0,0-2.74-.24H10.27Z"/><path d="M28.64,51.49v8.85a10.07,10.07,0,0,0,.16,2.2,2.23,2.23,0,0,0,.68,1.11c.84.75,2.39,1.13,4.68,1.13q3.72,0,4.88-1.33a2.3,2.3,0,0,0,.52-1.06,11.81,11.81,0,0,0,.13-2V51.49a1.13,1.13,0,0,0-.16-.69,1.11,1.11,0,0,0-.59-.32v-.37h3.17v.37a1,1,0,0,0-.59.31,1.15,1.15,0,0,0-.16.7V60.7A7.82,7.82,0,0,1,41,63.29a4.08,4.08,0,0,1-2.29,2.34,11.67,11.67,0,0,1-4.65.75q-4.46,0-6.1-1.72a3.92,3.92,0,0,1-.93-1.58,8.47,8.47,0,0,1-.26-2.38V51.49a1.15,1.15,0,0,0-.16-.7,1,1,0,0,0-.59-.31v-.37h3.34v.37a1.11,1.11,0,0,0-.6.32A1.22,1.22,0,0,0,28.64,51.49Z"/><path d="M47.9,64.58H58.12a1.23,1.23,0,0,0,.7-.15,1.12,1.12,0,0,0,.31-.6h.37v3h-.37a1.08,1.08,0,0,0-.31-.6,1.23,1.23,0,0,0-.7-.15H45.31v-.37a1.11,1.11,0,0,0,.61-.32,1.27,1.27,0,0,0,.14-.69V51.49a1.17,1.17,0,0,0-.15-.69,1,1,0,0,0-.6-.32v-.37h3.34v.37a1.09,1.09,0,0,0-.6.32,1.17,1.17,0,0,0-.15.69Z"/><path d="M63.64,51.49v8.85a10.07,10.07,0,0,0,.16,2.2,2.23,2.23,0,0,0,.68,1.11c.84.75,2.4,1.13,4.68,1.13q3.72,0,4.89-1.33a2.28,2.28,0,0,0,.51-1.06,10.87,10.87,0,0,0,.13-2V51.49a1.22,1.22,0,0,0-.15-.69,1.11,1.11,0,0,0-.6-.32v-.37h3.18v.37a1,1,0,0,0-.6.31,1.23,1.23,0,0,0-.15.7V60.7A7.82,7.82,0,0,1,76,63.29a4.14,4.14,0,0,1-2.29,2.34,11.73,11.73,0,0,1-4.66.75q-4.45,0-6.09-1.72a3.83,3.83,0,0,1-.94-1.58,8.86,8.86,0,0,1-.26-2.38V51.49a1.23,1.23,0,0,0-.15-.7,1,1,0,0,0-.6-.31v-.37h3.34v.37a1.11,1.11,0,0,0-.6.32A1.22,1.22,0,0,0,63.64,51.49Z"/><path d="M87.43,51.63V64.72a1.16,1.16,0,0,0,.15.68,1.05,1.05,0,0,0,.6.33v.37H84.84v-.37a1.11,1.11,0,0,0,.6-.32,1.17,1.17,0,0,0,.15-.69V51.63H80.18a1.21,1.21,0,0,0-.7.15,1,1,0,0,0-.31.6h-.38v-3h.38a.93.93,0,0,0,.31.59,1.13,1.13,0,0,0,.7.16H92.84a1.15,1.15,0,0,0,.7-.16.93.93,0,0,0,.31-.59h.38v3h-.38a1,1,0,0,0-.31-.6,1.23,1.23,0,0,0-.7-.15Z"/><path d="M115.78,58.64h-11v6.08a1.17,1.17,0,0,0,.15.69,1,1,0,0,0,.6.32v.37h-3.34v-.37a1.07,1.07,0,0,0,.6-.32,1.17,1.17,0,0,0,.15-.69V51.49a1.23,1.23,0,0,0-.15-.7,1,1,0,0,0-.6-.31v-.37h3.34v.37a1,1,0,0,0-.6.32,1.17,1.17,0,0,0-.15.69v5.62h11V51.49a1.15,1.15,0,0,0-.16-.7,1,1,0,0,0-.59-.31v-.37h3.34v.37a1,1,0,0,0-.6.32,1.17,1.17,0,0,0-.15.69V64.72a1.16,1.16,0,0,0,.15.68,1.05,1.05,0,0,0,.6.33v.37H115v-.37a1.11,1.11,0,0,0,.59-.32,1.09,1.09,0,0,0,.16-.69Z"/><path d="M133.23,61.61h-8.55l-1.41,3a1.85,1.85,0,0,0-.2.61c0,.23.23.39.69.47v.37h-3.57v-.37a1.33,1.33,0,0,0,.74-.36,4.6,4.6,0,0,0,.66-1.17l5.86-12.64a2,2,0,0,0,.21-.62c0-.21-.19-.36-.57-.46v-.37H131v.37c-.39.13-.58.29-.58.49a2.05,2.05,0,0,0,.21.59l5.62,12.19a9.8,9.8,0,0,0,.82,1.58,1.75,1.75,0,0,0,.86.4v.37h-3.79v-.37c.45-.07.68-.24.68-.52a2.34,2.34,0,0,0-.26-.73Zm-.67-1.52L129,52.19l-3.59,7.9Z"/><path d="M142.17,51.63v5.46h6.93a1.21,1.21,0,0,0,.7-.15,1,1,0,0,0,.31-.6h.38v3h-.38a1,1,0,0,0-.31-.59,1.13,1.13,0,0,0-.7-.16h-6.93v6.11a1.27,1.27,0,0,0,.14.69,1.11,1.11,0,0,0,.61.32v.37h-3.34v-.37a1.2,1.2,0,0,0,.6-.32,1.17,1.17,0,0,0,.15-.69V51.49a1.23,1.23,0,0,0-.15-.7,1.06,1.06,0,0,0-.6-.31v-.37h13a1.11,1.11,0,0,0,.69-.16.93.93,0,0,0,.31-.59H154v3h-.38a1,1,0,0,0-.31-.6,1.19,1.19,0,0,0-.69-.15Z"/><path d="M157.44,64.72V51.49a1.15,1.15,0,0,0-.16-.7,1,1,0,0,0-.59-.31v-.37H160v.37a1,1,0,0,0-.6.32,1.17,1.17,0,0,0-.15.69V64.72a1.27,1.27,0,0,0,.14.69,1.11,1.11,0,0,0,.61.32v.37h-3.34v-.37a1.11,1.11,0,0,0,.6-.32A1.17,1.17,0,0,0,157.44,64.72Z"/><path d="M166.14,51.63v5.46h6.94a1.23,1.23,0,0,0,.7-.15,1,1,0,0,0,.31-.6h.37v3h-.37a1,1,0,0,0-.31-.59,1.15,1.15,0,0,0-.7-.16h-6.94v6.11a1.17,1.17,0,0,0,.15.69,1.11,1.11,0,0,0,.6.32v.37h-3.34v-.37a1.11,1.11,0,0,0,.6-.32,1.17,1.17,0,0,0,.15-.69V51.49a1.23,1.23,0,0,0-.15-.7,1,1,0,0,0-.6-.31v-.37h13a1.15,1.15,0,0,0,.7-.16.93.93,0,0,0,.31-.59h.37v3h-.37a1,1,0,0,0-.31-.6,1.23,1.23,0,0,0-.7-.15Z"/><path d="M193.78,51.63V64.72a1.16,1.16,0,0,0,.15.68,1.05,1.05,0,0,0,.6.33v.37h-3.34v-.37a1.11,1.11,0,0,0,.59-.32,1.09,1.09,0,0,0,.16-.69V51.63h-5.42a1.17,1.17,0,0,0-.69.15,1,1,0,0,0-.32.6h-.37v-3h.37a1,1,0,0,0,.32.59,1.09,1.09,0,0,0,.69.16h12.67a1.15,1.15,0,0,0,.7-.16,1,1,0,0,0,.31-.59h.37v3h-.37a1,1,0,0,0-.31-.6,1.23,1.23,0,0,0-.7-.15Z"/><path d="M203.33,64.72V51.49a1.23,1.23,0,0,0-.15-.7,1.06,1.06,0,0,0-.6-.31v-.37h3.34v.37a1,1,0,0,0-.6.32,1.17,1.17,0,0,0-.15.69V64.72a1.27,1.27,0,0,0,.14.69,1.11,1.11,0,0,0,.61.32v.37h-3.34v-.37a1.11,1.11,0,0,0,.6-.32A1.17,1.17,0,0,0,203.33,64.72Z"/><path d="M226.31,51.49l-1.74,2.89-.31-.18a2.07,2.07,0,0,0,.1-.56q0-.48-1.5-1.2a10.11,10.11,0,0,0-4.5-1A7.71,7.71,0,0,0,213,53.24,6.14,6.14,0,0,0,211,58a6.27,6.27,0,0,0,2.15,4.86,7.39,7.39,0,0,0,5.15,1.89A8.45,8.45,0,0,0,223.54,63c.69-.53,1-.9,1-1.12a1.28,1.28,0,0,0-.2-.54l.29-.22,2.08,2.53-.29.24a.92.92,0,0,0-.54-.3,1.08,1.08,0,0,0-.45.25,17.59,17.59,0,0,1-1.78,1.22,8.17,8.17,0,0,1-1.56.68,11.72,11.72,0,0,1-3.84.6,9.51,9.51,0,0,1-6.57-2.25,7.64,7.64,0,0,1-2.66-6,7.8,7.8,0,0,1,1.66-5c1.73-2.2,4.33-3.31,7.79-3.31a13.35,13.35,0,0,1,6.65,1.82.78.78,0,0,0,.29.12c.1,0,.29-.15.55-.45Z"/><path d="M240.93,61.61h-8.56l-1.41,3a1.85,1.85,0,0,0-.2.61c0,.23.24.39.7.47v.37h-3.57v-.37a1.3,1.3,0,0,0,.73-.36,4.6,4.6,0,0,0,.66-1.17l5.86-12.64a2,2,0,0,0,.21-.62c0-.21-.19-.36-.57-.46v-.37h3.89v.37c-.38.13-.57.29-.57.49a2.05,2.05,0,0,0,.21.59l5.61,12.19a12,12,0,0,0,.82,1.58,1.75,1.75,0,0,0,.87.4v.37h-3.8v-.37c.46-.07.68-.24.68-.52a2.23,2.23,0,0,0-.25-.73Zm-.68-1.52-3.6-7.9-3.6,7.9Z"/><path d="M249.86,58.91v5.81a1.22,1.22,0,0,0,.15.69,1.2,1.2,0,0,0,.6.32v.37h-3.34v-.37a1.11,1.11,0,0,0,.6-.32,1.17,1.17,0,0,0,.15-.69V51.49a1.23,1.23,0,0,0-.15-.7,1,1,0,0,0-.6-.31v-.37h8.78a16.44,16.44,0,0,1,2.85.19,5.3,5.3,0,0,1,1.83.67A3.69,3.69,0,0,1,262,52.32a4.27,4.27,0,0,1,.57,2.2,3.93,3.93,0,0,1-1.22,3A5.24,5.24,0,0,1,258,58.82l4.07,6.32a1.16,1.16,0,0,0,1,.59v.37h-3.7v-.37q.57-.11.57-.33a2.66,2.66,0,0,0-.41-.76L256,58.91Zm0-1.53h6.48a12.53,12.53,0,0,0,2-.11,3.55,3.55,0,0,0,1.19-.4,2.9,2.9,0,0,0,0-4.73,3.8,3.8,0,0,0-1.23-.41,15.18,15.18,0,0,0-2.09-.1h-6.32Z"/><path d="M266.47,64.72V51.49a1.23,1.23,0,0,0-.15-.7,1.06,1.06,0,0,0-.6-.31v-.37h3.34v.37a1,1,0,0,0-.6.32,1.17,1.17,0,0,0-.15.69V64.72a1.27,1.27,0,0,0,.14.69,1.11,1.11,0,0,0,.61.32v.37h-3.34v-.37a1.11,1.11,0,0,0,.6-.32A1.17,1.17,0,0,0,266.47,64.72Z"/><path class="cls-1" d="M188.11,74.67a4.06,4.06,0,0,1,1.61.32,3.48,3.48,0,0,1,1.28.89,4,4,0,0,1,.84,1.39,5.61,5.61,0,0,1,0,3.62A4.11,4.11,0,0,1,191,82.3a3.73,3.73,0,0,1-1.27.92,4.34,4.34,0,0,1-3.27,0,3.74,3.74,0,0,1-1.27-.91,4.13,4.13,0,0,1-.84-1.41,5.51,5.51,0,0,1-.29-1.82,5.22,5.22,0,0,1,.3-1.82,4.14,4.14,0,0,1,.84-1.39,3.58,3.58,0,0,1,1.28-.88A4.07,4.07,0,0,1,188.11,74.67Zm0,8.25a3.49,3.49,0,0,0,1.35-.26,3,3,0,0,0,1.08-.74,3.5,3.5,0,0,0,.7-1.21,5.44,5.44,0,0,0,0-3.26,3.48,3.48,0,0,0-.71-1.18,3,3,0,0,0-1.06-.73,3.63,3.63,0,0,0-1.34-.24,3.54,3.54,0,0,0-1.36.25,3.18,3.18,0,0,0-1.08.73,3.36,3.36,0,0,0-.7,1.18,4.75,4.75,0,0,0-.26,1.62,5.12,5.12,0,0,0,.25,1.63,3.5,3.5,0,0,0,.7,1.21,3.07,3.07,0,0,0,1.07.74A3.58,3.58,0,0,0,188.1,82.92Z"/><path class="cls-1" d="M203,75.45h-3v7.93h-.62V75.45h-3v-.62H203Z"/><path class="cls-1" d="M211.38,74.67A4.14,4.14,0,0,1,213,75a3.56,3.56,0,0,1,1.28.89,4.18,4.18,0,0,1,.83,1.39,5.17,5.17,0,0,1,.3,1.81,5.45,5.45,0,0,1-.29,1.81,4.13,4.13,0,0,1-.84,1.41,3.64,3.64,0,0,1-1.27.92,4.31,4.31,0,0,1-3.26,0,3.78,3.78,0,0,1-1.28-.91,4.11,4.11,0,0,1-.83-1.41,5.67,5.67,0,0,1,0-3.64,4.14,4.14,0,0,1,.84-1.39,3.66,3.66,0,0,1,1.28-.88A4.07,4.07,0,0,1,211.38,74.67Zm0,8.25a3.54,3.54,0,0,0,1.36-.26,3.07,3.07,0,0,0,1.07-.74,3.52,3.52,0,0,0,.71-1.21,5.12,5.12,0,0,0,.25-1.63,4.81,4.81,0,0,0-.26-1.63,3.46,3.46,0,0,0-.7-1.18,3,3,0,0,0-1.06-.73,3.67,3.67,0,0,0-1.34-.24,3.59,3.59,0,0,0-1.37.25,3,3,0,0,0-1.07.73,3.38,3.38,0,0,0-.71,1.18,4.75,4.75,0,0,0-.25,1.62,4.85,4.85,0,0,0,.25,1.63,3.5,3.5,0,0,0,.7,1.21,3,3,0,0,0,1.07.74A3.49,3.49,0,0,0,211.37,82.92Z"/><path class="cls-1" d="M228.38,83.38h-.63V75.85l-3.07,7.53H224L221,75.85v7.53h-.63V74.83h.91l3.12,7.77,3.14-7.77h.89Z"/><path class="cls-1" d="M240.51,83.38h-.75l-1-2.75H234.5c-.15.44-.32.89-.49,1.38l-.51,1.37h-.66c.28-.73.55-1.46.83-2.17l.81-2.11c.28-.7.55-1.41.82-2.11l.83-2.17H237Zm-2-3.24-2-4.76-1.89,4.76Z"/><path class="cls-1" d="M250.93,75.45h-3v7.93h-.62V75.45h-3v-.62h6.58Z"/><path class="cls-1" d="M256.56,83.38h-.63V74.83h.63Z"/><path class="cls-1" d="M268.92,74.83l-3.35,8.55h-.81l-3.35-8.55h.7l3.06,7.77,3.06-7.77Z"/><g id="surface1"><path d="M68.89,35.38A2.17,2.17,0,1,0,71,33.45,2.05,2.05,0,0,0,68.89,35.38Z"/><path d="M23,35.38a2.17,2.17,0,1,0,2.16-1.93A2.06,2.06,0,0,0,23,35.38Z"/><path d="M60.28,30.88v2.57h3.2s0,0,0-.06a7.13,7.13,0,0,1,.57-1.3s0-.05.06-.08A8,8,0,0,1,64.92,31l.06-.07Z"/><path d="M57.41,36H48.8V38.6h8.61Z"/><path d="M57.41,33.45H48.8V30.88h8.61Z"/><path d="M80.37,30.88H77.11l0,.07A6.49,6.49,0,0,1,77.94,32s0,.06.06.09a7.17,7.17,0,0,1,.58,1.3s0,0,0,.06h1.76Z"/><path class="cls-1" d="M43.06,28.31h2.87V3.86A4.11,4.11,0,0,0,41.62,0H39.15l.72,2.57h1.75a1.38,1.38,0,0,1,1.44,1.29Z"/><path d="M66.05,35.11a1.24,1.24,0,0,0,0,.27,5.05,5.05,0,0,0,10,0l0-.27,0-.23a5.08,5.08,0,0,0-9.92,0Z"/><path d="M20.12,35.11l0,.27a4.79,4.79,0,0,0,5,4.51,4.79,4.79,0,0,0,5-4.51,1.24,1.24,0,0,0,0-.27l0-.23a4.83,4.83,0,0,0-5-4,4.81,4.81,0,0,0-5,4Z"/><path d="M7.21,35.11a1.24,1.24,0,0,0,0,.27,4.79,4.79,0,0,0,5,4.51,4.79,4.79,0,0,0,5-4.51,1.24,1.24,0,0,0,0-.27l0-.23a4.83,4.83,0,0,0-5-4,4.83,4.83,0,0,0-5,4Z"/><path d="M33,30.88V36H45.93V30.88Z"/><path d="M0,32.7v.75H4.64s0,0,0-.06a6.5,6.5,0,0,1,.57-1.3L5.3,32A8,8,0,0,1,6.08,31l0-.07H2Z"/><path d="M58.51,10.29H48.8v18H80.37v-.49a3.58,3.58,0,0,0-3.76-3.37h-6a3.78,3.78,0,0,0-3.36,1.86l-2.57-1.15a6.73,6.73,0,0,1,5.93-3.29h6a8.65,8.65,0,0,1,.89.08v-.54a1.33,1.33,0,0,0-1.15-1.26L64.3,18a1.43,1.43,0,0,1-1-.69L59.79,11A1.45,1.45,0,0,0,58.51,10.29ZM51.67,23.16h5.74v2.57H51.67Zm7.13-9.32L60.24,19a1.2,1.2,0,0,1-.26,1.1,1.53,1.53,0,0,1-1.14.5H53.1a1.37,1.37,0,0,1-1.43-1.29V14.15a1.36,1.36,0,0,1,1.43-1.28h4.31A1.41,1.41,0,0,1,58.8,13.84Z"/><path d="M10.05,35.38a2.05,2.05,0,0,0,2.15,1.94,1.95,1.95,0,1,0,0-3.87A2.05,2.05,0,0,0,10.05,35.38Z"/></g><line class="cls-2" x1="180.37" y1="95.89" x2="272.37" y2="95.89"/></g></g></svg>