<svg xmlns="http://www.w3.org/2000/svg" viewBox="0 0 481.48 62.46"><defs><style>.cls-1{fill:#ff1d25;}</style></defs><g id="katman_2" data-name="katman 2"><g id="katman_1-2" data-name="katman 1"><g id="surface1"><path d="M463.5,55.41a3.39,3.39,0,1,0,3.37-3A3.22,3.22,0,0,0,463.5,55.41Z"/><path d="M391.59,55.41a3.39,3.39,0,1,0,3.37-3A3.22,3.22,0,0,0,391.59,55.41Z"/><path d="M450,48.35v4h5s0-.07,0-.1a11.11,11.11,0,0,1,.9-2,1.47,1.47,0,0,1,.1-.13,10.82,10.82,0,0,1,1.22-1.65l.08-.12Z"/><path d="M445.52,56.41H432v4h13.48Z"/><path d="M445.52,52.38H432v-4h13.48Z"/><path d="M481.48,48.35h-5.11l.08.12a10.73,10.73,0,0,1,1.22,1.64l.1.14a11.11,11.11,0,0,1,.9,2l0,.1h2.77Z"/><path class="cls-1" d="M423.05,44.32h4.49V6c0-3.33-3-6-6.74-6h-3.86l1.12,4h2.74a2.14,2.14,0,0,1,2.25,2Z"/><path d="M459.05,55c0,.14,0,.29-.05.44,0,3.89,3.53,7.05,7.87,7.05s7.86-3.16,7.86-7.05a2.12,2.12,0,0,0-.05-.44l-.05-.35c-.41-3.56-3.77-6.27-7.76-6.27s-7.35,2.71-7.77,6.27Z"/><path d="M387.14,55a3.12,3.12,0,0,0-.05.44c0,3.89,3.52,7.05,7.87,7.05s7.86-3.16,7.86-7.05a2.12,2.12,0,0,0-.05-.44l0-.35c-.42-3.56-3.77-6.27-7.76-6.27s-7.35,2.71-7.77,6.27Z"/><path d="M366.92,55a2.12,2.12,0,0,0-.05.44c0,3.89,3.52,7.05,7.86,7.05s7.87-3.16,7.87-7.05c0-.15,0-.3-.05-.44l-.05-.35c-.42-3.56-3.77-6.27-7.77-6.27s-7.34,2.71-7.76,6.27Z"/><path d="M407.32,48.35v8.06h20.22V48.35Z"/><path d="M355.63,51.2v1.18h7.26s0-.07,0-.1a11.11,11.11,0,0,1,.9-2,1.47,1.47,0,0,1,.1-.13,10.82,10.82,0,0,1,1.22-1.65l.08-.12h-6.42Z"/><path d="M447.24,16.12H432v28.2h49.44v-.77c0-2.91-2.64-5.27-5.89-5.27h-9.31A6,6,0,0,0,461,41.2l-4-1.81a10.53,10.53,0,0,1,9.3-5.14h9.31a10.72,10.72,0,0,1,1.39.13v-.85a2.08,2.08,0,0,0-1.8-2l-18.87-3.38a2.24,2.24,0,0,1-1.58-1.08l-5.48-9.86A2.29,2.29,0,0,0,447.24,16.12ZM436.53,36.27h9v4h-9Zm11.17-14.6L450,29.73a1.84,1.84,0,0,1-.41,1.73,2.36,2.36,0,0,1-1.77.78h-9a2.15,2.15,0,0,1-2.25-2V22.16a2.14,2.14,0,0,1,2.25-2h6.74A2.22,2.22,0,0,1,447.7,21.67Z"/><path d="M371.36,55.41a3.39,3.39,0,1,0,3.37-3A3.22,3.22,0,0,0,371.36,55.41Z"/></g><path d="M21.38,26.64a5.64,5.64,0,0,1,4,5.66,6.21,6.21,0,0,1-2.36,5.15,7.62,7.62,0,0,1-2.77,1.35,15.77,15.77,0,0,1-3.89.41H0v-.56a1.85,1.85,0,0,0,.88-.46,1.25,1.25,0,0,0,.25-.83V17.06a1.26,1.26,0,0,0-.25-.83A1.84,1.84,0,0,0,0,15.78v-.57H16.24a15.85,15.85,0,0,1,3.76.36,6.44,6.44,0,0,1,2.5,1.19,5.77,5.77,0,0,1,2.13,4.82A5.25,5.25,0,0,1,21.38,26.64Zm-15-1.88h9.2a5.06,5.06,0,0,0,2.91-.62A2.52,2.52,0,0,0,19.41,22a2.51,2.51,0,0,0-.88-2.15,5.19,5.19,0,0,0-3-.64H6.36Zm0,10.49h8.9a7,7,0,0,0,3.57-.68A2.83,2.83,0,0,0,20.07,32a2.85,2.85,0,0,0-1.24-2.58,6.91,6.91,0,0,0-3.57-.69H6.36Z"/><path d="M53.44,17.06V30.51A9.53,9.53,0,0,1,52,36.22q-2.53,3.41-10.46,3.41-5.73,0-8.77-1.84a5.69,5.69,0,0,1-2.46-2.92,12.61,12.61,0,0,1-.67-4.36V17.06a1.26,1.26,0,0,0-.24-.83,1.84,1.84,0,0,0-.88-.45v-.57H36v.57a1.62,1.62,0,0,0-.88.45,1.21,1.21,0,0,0-.25.83V29a15.11,15.11,0,0,0,.23,3.07A3.52,3.52,0,0,0,36,33.76c1.13,1.2,3,1.79,5.77,1.79s4.65-.59,5.78-1.79a3.59,3.59,0,0,0,.84-1.66A15.11,15.11,0,0,0,48.62,29v-12a1.26,1.26,0,0,0-.24-.83,1.84,1.84,0,0,0-.88-.45v-.57h7.06v.57a1.84,1.84,0,0,0-.88.45A1.26,1.26,0,0,0,53.44,17.06Z"/><path d="M64.76,35.25H79.51a1.23,1.23,0,0,0,.82-.24,1.85,1.85,0,0,0,.46-.88h.56v6.2h-.56a1.76,1.76,0,0,0-.46-.87,1.18,1.18,0,0,0-.82-.25H58.39v-.56a1.75,1.75,0,0,0,.88-.46,1.19,1.19,0,0,0,.25-.83V17.06a1.21,1.21,0,0,0-.25-.83,1.75,1.75,0,0,0-.88-.45v-.57h7.49v.57a1.62,1.62,0,0,0-.88.45,1.26,1.26,0,0,0-.24.83Z"/><path d="M108.07,17.06V30.51a9.53,9.53,0,0,1-1.41,5.71q-2.52,3.41-10.45,3.41c-3.83,0-6.75-.61-8.78-1.84A5.69,5.69,0,0,1,85,34.87a12.85,12.85,0,0,1-.67-4.36V17.06a1.26,1.26,0,0,0-.24-.83,1.84,1.84,0,0,0-.88-.45v-.57h7.49v.57a1.62,1.62,0,0,0-.88.45,1.26,1.26,0,0,0-.25.83V29a15.11,15.11,0,0,0,.23,3.07,3.52,3.52,0,0,0,.86,1.66c1.13,1.2,3.05,1.79,5.77,1.79s4.66-.59,5.78-1.79A3.7,3.7,0,0,0,103,32.1a15.28,15.28,0,0,0,.22-3.07v-12a1.26,1.26,0,0,0-.24-.83,1.84,1.84,0,0,0-.88-.45v-.57h7.07v.57a1.75,1.75,0,0,0-.88.45A1.21,1.21,0,0,0,108.07,17.06Z"/><path d="M125.63,19.17V37.36a1.19,1.19,0,0,0,.25.83,1.75,1.75,0,0,0,.88.46v.56h-7.49v-.56a1.85,1.85,0,0,0,.88-.46,1.25,1.25,0,0,0,.24-.83V19.17h-7.45a1.22,1.22,0,0,0-.81.24,1.8,1.8,0,0,0-.46.88h-.56v-6.2h.56a1.92,1.92,0,0,0,.47.88,1.18,1.18,0,0,0,.8.24h20.13a1.22,1.22,0,0,0,.82-.24,1.75,1.75,0,0,0,.46-.88h.56v6.2h-.56a1.8,1.8,0,0,0-.46-.88,1.22,1.22,0,0,0-.82-.24Z"/><path d="M166.5,28.73H152.67v8.65a1.22,1.22,0,0,0,.25.82,1.77,1.77,0,0,0,.87.45v.56H146.3v-.56a1.8,1.8,0,0,0,.88-.46,1.17,1.17,0,0,0,.25-.81V17a1.17,1.17,0,0,0-.25-.81,1.8,1.8,0,0,0-.88-.45v-.57h7.49v.57a1.62,1.62,0,0,0-.88.45,1.22,1.22,0,0,0-.24.81v7.74H166.5V17a1.17,1.17,0,0,0-.25-.81,1.55,1.55,0,0,0-.87-.45v-.57h7.48v.57a1.84,1.84,0,0,0-.88.45,1.22,1.22,0,0,0-.24.81V37.38a1.22,1.22,0,0,0,.24.81,1.85,1.85,0,0,0,.88.46v.56h-7.48v-.56a1.77,1.77,0,0,0,.87-.45,1.22,1.22,0,0,0,.25-.82Z"/><path d="M194.76,33.09h-10.9l-1.62,3.38a2.82,2.82,0,0,0-.33,1.1q0,.78,1.17,1.08v.56h-7.93v-.56a2.14,2.14,0,0,0,1.07-.5,4.54,4.54,0,0,0,.84-1.37l8.83-18.44a3.48,3.48,0,0,0,.42-1.4c0-.54-.34-.93-1-1.16v-.57h8.51v.57c-.69.2-1,.54-1,1A2.51,2.51,0,0,0,193.1,18l9.14,18.5a6.06,6.06,0,0,0,1,1.61,2.3,2.3,0,0,0,1.17.57v.56H195.6v-.56c.78-.13,1.16-.5,1.16-1.09a2.69,2.69,0,0,0-.35-1.09Zm-1.5-3.29-3.89-8.54-4,8.54Z"/><path d="M212.84,28.71v8.65a1.24,1.24,0,0,0,.25.84,1.77,1.77,0,0,0,.87.45v.56h-7.49v-.56a1.8,1.8,0,0,0,.88-.46,1.19,1.19,0,0,0,.25-.83V17.06a1.21,1.21,0,0,0-.25-.83,1.8,1.8,0,0,0-.88-.45v-.57h21.24a1.22,1.22,0,0,0,.81-.24,1.75,1.75,0,0,0,.45-.88h.57v6.2H229a1.8,1.8,0,0,0-.45-.88,1.22,1.22,0,0,0-.81-.24H212.84V24.9h9.72a1.17,1.17,0,0,0,.82-.25,1.85,1.85,0,0,0,.46-.87h.56v6.06h-.56a1.85,1.85,0,0,0-.46-.88,1.22,1.22,0,0,0-.82-.25Z"/><path d="M233.79,37.36V17a1.17,1.17,0,0,0-.25-.81,1.75,1.75,0,0,0-.88-.45v-.57h7.49v.57a1.62,1.62,0,0,0-.88.45A1.22,1.22,0,0,0,239,17V37.36a1.24,1.24,0,0,0,.25.84,1.77,1.77,0,0,0,.87.45v.56h-7.49v-.56a1.75,1.75,0,0,0,.88-.46A1.19,1.19,0,0,0,233.79,37.36Z"/><path d="M250.82,28.71v8.65a1.24,1.24,0,0,0,.26.84,1.77,1.77,0,0,0,.87.45v.56h-7.49v-.56a1.85,1.85,0,0,0,.88-.46,1.25,1.25,0,0,0,.24-.83V17.06a1.26,1.26,0,0,0-.24-.83,1.84,1.84,0,0,0-.88-.45v-.57h21.23a1.22,1.22,0,0,0,.81-.24,1.75,1.75,0,0,0,.46-.88h.56v6.2H267a1.8,1.8,0,0,0-.46-.88,1.22,1.22,0,0,0-.81-.24H250.82V24.9h9.72a1.19,1.19,0,0,0,.83-.25,1.85,1.85,0,0,0,.46-.87h.56v6.06h-.56a1.85,1.85,0,0,0-.46-.88,1.25,1.25,0,0,0-.83-.25Z"/><path d="M292.25,19.17V37.36a1.25,1.25,0,0,0,.25.83,1.8,1.8,0,0,0,.88.46v.56h-7.49v-.56a1.8,1.8,0,0,0,.88-.46,1.25,1.25,0,0,0,.25-.83V19.17h-7.46a1.22,1.22,0,0,0-.81.24,1.8,1.8,0,0,0-.45.88h-.57v-6.2h.57a1.92,1.92,0,0,0,.46.88,1.18,1.18,0,0,0,.8.24h20.13a1.26,1.26,0,0,0,.83-.24,1.75,1.75,0,0,0,.45-.88h.57v6.2H301a1.8,1.8,0,0,0-.45-.88,1.26,1.26,0,0,0-.83-.24Z"/><path d="M305.05,37.36V17a1.17,1.17,0,0,0-.25-.81,1.76,1.76,0,0,0-.87-.45v-.57h7.48v.57a1.55,1.55,0,0,0-.87.45,1.17,1.17,0,0,0-.25.81V37.36a1.24,1.24,0,0,0,.25.84,1.77,1.77,0,0,0,.87.45v.56h-7.48v-.56a1.76,1.76,0,0,0,.87-.46A1.19,1.19,0,0,0,305.05,37.36Z"/><path d="M339,31l3.34,5-.46.31a1.39,1.39,0,0,0-.81-.45,6.25,6.25,0,0,0-1.77.84A24.8,24.8,0,0,1,334.19,39a17.4,17.4,0,0,1-4.92.61A15.26,15.26,0,0,1,320,36.94a11.34,11.34,0,0,1-3.38-3.88,12.18,12.18,0,0,1-1.42-5.86,11.82,11.82,0,0,1,2.55-7.57q3.82-4.85,11.58-4.84a17.47,17.47,0,0,1,4.89.6,24.61,24.61,0,0,1,5.1,2.36,6.22,6.22,0,0,0,1.77.82,1.39,1.39,0,0,0,.81-.45l.46.31-3.34,5-.48-.31a3.08,3.08,0,0,0,0-.48,1.35,1.35,0,0,0-.44-.95,7.55,7.55,0,0,0-1.57-1.08,13.3,13.3,0,0,0-6.59-1.75,9.87,9.87,0,0,0-6.56,2.06,7.79,7.79,0,0,0-2.88,6.28,7.81,7.81,0,0,0,2.88,6.29,9.87,9.87,0,0,0,6.56,2,13.1,13.1,0,0,0,6.59-1.76,7.55,7.55,0,0,0,1.57-1.08,1.34,1.34,0,0,0,.44-.95,2.68,2.68,0,0,0,0-.46Z"/><path d="M363,33.09h-10.9l-1.62,3.38a2.82,2.82,0,0,0-.33,1.1q0,.78,1.17,1.08v.56h-7.93v-.56a2.14,2.14,0,0,0,1.07-.5,4.75,4.75,0,0,0,.84-1.37l8.83-18.44a3.48,3.48,0,0,0,.42-1.4c0-.54-.34-.93-1-1.16v-.57h8.51v.57c-.69.2-1,.54-1,1a2.61,2.61,0,0,0,.33,1.16l9.14,18.5a6.62,6.62,0,0,0,1,1.61,2.38,2.38,0,0,0,1.18.57v.56h-8.83v-.56c.77-.13,1.16-.5,1.16-1.09a2.86,2.86,0,0,0-.35-1.09Zm-1.51-3.29-3.89-8.54-3.95,8.54Z"/><path d="M381.09,29.42v8a1.22,1.22,0,0,0,.26.82,1.77,1.77,0,0,0,.87.45v.56h-7.49v-.56a1.8,1.8,0,0,0,.88-.46,1.22,1.22,0,0,0,.25-.81V17.06a1.26,1.26,0,0,0-.25-.83,1.8,1.8,0,0,0-.88-.45v-.57h15a23.57,23.57,0,0,1,4.35.32,7.66,7.66,0,0,1,2.81,1.11A5.6,5.6,0,0,1,399,19.12a8.14,8.14,0,0,1,.65,3.23q0,5.88-6.52,6.87l4.66,6.63a14.69,14.69,0,0,0,1.8,2.24,2.28,2.28,0,0,0,1.4.56v.56h-8.67v-.56c.59-.1.89-.31.89-.64a4.46,4.46,0,0,0-.82-1.53l-4.86-7.06Zm0-4h8.09a20.87,20.87,0,0,0,2.53-.1,4,4,0,0,0,1.35-.44,2.68,2.68,0,0,0,1.34-2.6,2.7,2.7,0,0,0-1.34-2.61,3.78,3.78,0,0,0-1.34-.44,20.63,20.63,0,0,0-2.54-.1h-8.09Z"/><path d="M405,37.36V17a1.22,1.22,0,0,0-.24-.81,1.84,1.84,0,0,0-.88-.45v-.57h7.49v.57a1.58,1.58,0,0,0-.88.45,1.22,1.22,0,0,0-.25.81V37.36a1.24,1.24,0,0,0,.26.84,1.77,1.77,0,0,0,.87.45v.56h-7.49v-.56a1.85,1.85,0,0,0,.88-.46A1.25,1.25,0,0,0,405,37.36Z"/></g></g></svg>