<?xml version="1.0" encoding="iso-8859-1"?>
<!-- Generator: Adobe Illustrator 18.0.0, SVG Export Plug-In . SVG Version: 6.00 Build 0)  -->
<!DOCTYPE svg PUBLIC "-//W3C//DTD SVG 1.1//EN" "http://www.w3.org/Graphics/SVG/1.1/DTD/svg11.dtd">
<svg version="1.1" id="Capa_1" xmlns="http://www.w3.org/2000/svg" xmlns:xlink="http://www.w3.org/1999/xlink" x="0px" y="0px"
	 viewBox="0 0 474.377 474.377" style="enable-background:new 0 0 474.377 474.377;" xml:space="preserve">
<path d="M474.377,88.604c0-1.428-0.762-2.749-2-3.464l-84.648-48.872c-1.237-0.715-2.761-0.714-3.998-0.002L64.312,220.416
	c-1.238,0.715-2.001,2.035-2.002,3.465c0,0,0,0.001,0,0.001l0,0v26.284L11.39,279.183c-1.056,0.602-1.765,1.645-1.96,2.822
	l-9.235,55.621C0.072,338.013,0,338.419,0,338.836v46.946c0,1.429,0.763,2.75,2,3.464l84.642,48.863c0.619,0.357,1.31,0.536,2,0.536
	s1.381-0.179,2-0.536c0.008-0.005,37.078-21.063,37.078-21.063c0.686,5.086,3.047,9.289,7.05,11.6
	c2.072,1.196,4.362,1.765,6.749,1.765c7.593,0,16.155-5.756,21.702-15.362c3.31-5.734,5.015-12.003,4.801-17.651
	c-0.044-1.169-0.194-2.271-0.395-3.336l67.988-39.249c0.796,4.793,3.137,8.731,6.968,10.943c2.072,1.196,4.362,1.765,6.749,1.765
	c7.593-0.001,16.155-5.756,21.702-15.362c2.265-3.922,3.757-8.092,4.418-12.145c1.171,1.896,2.711,3.48,4.654,4.603
	c2.072,1.196,4.362,1.765,6.749,1.765c7.593,0,16.155-5.756,21.702-15.362c3.311-5.733,5.016-12.003,4.802-17.651
	c-0.043-1.124-0.185-2.184-0.372-3.212l4.379-2.527c1.238-0.715,2-2.035,2-3.465V277.99l24.666-14.219
	c0,0,22.98,13.193,23.057,13.237c0.616,0.353,1.303,0.529,1.989,0.529c0.699,0,1.398-0.183,2.022-0.549l7.657-4.487
	c0.815,4.924,3.209,8.745,6.94,10.9c2.051,1.185,4.334,1.774,6.751,1.774c2.811,0,5.801-0.798,8.813-2.388
	c4.999-2.64,9.575-7.251,12.885-12.984c2.323-4.023,3.788-8.163,4.438-12.103c1.182,1.898,2.724,3.458,4.635,4.561
	c2.051,1.185,4.334,1.774,6.751,1.774c2.811,0,5.801-0.798,8.813-2.388c4.999-2.64,9.576-7.251,12.886-12.984
	c4.152-7.192,5.58-14.762,4.448-20.875l4.36-2.516c1.238-0.715,2-2.035,2-3.465v-26.32l9.896-5.705
	c1.239-0.715,2.002-2.036,2.002-3.466L474.377,88.604L474.377,88.604z M385.728,44.35l76.646,44.251L150.952,268.128l-76.638-44.244
	L385.728,44.35z M70.31,230.81l76.641,44.246v19.397L70.31,250.2V230.81z M66.281,257.112l76.614,44.237l-44.87,25.563
	l-76.615-44.23L66.281,257.112z M63.415,415.465l-34.188-19.738v-14.952l34.188,19.737V415.465z M69.415,394.739l-42.188-24.355
	c-1.238-0.715-2.763-0.715-4,0c-1.238,0.714-2,2.035-2,3.464v0.165L8,366.059v-20.295l76.642,44.249l-0.001,21.128l-13.226-7.956
	v-4.982C71.415,396.775,70.652,395.453,69.415,394.739z M92.084,343.275l-77.311-44.633l1.598-9.633l77.256,44.601L92.084,343.275z
	 M90.733,351.732l-4.761,29.811l-77.528-44.76l4.93-29.712L90.733,351.732z M101.659,334.049l10.813-6.16v41.463l-18.123,10.464
	L101.659,334.049z M8,375.394l13.227,7.954v7.761L8,383.473V375.394z M71.415,420.084v-7.562l13.226,7.955l0,7.242L71.415,420.084z
	 M132.321,397.209C132.32,397.209,132.32,397.209,132.321,397.209c-1.979,3.428-3.32,6.938-4.081,10.341l-35.597,20.22v-37.732
	l25.83-14.913c1.238-0.714,2-2.035,2-3.464v-48.33l26.478-15.085v75.153c-0.58,0.248-1.161,0.519-1.744,0.826
	C140.208,386.864,135.631,391.476,132.321,397.209z M156.292,411.049c-5.305,9.186-13.493,12.997-17.522,10.67
	c-4.03-2.327-4.825-11.323,0.479-20.51h0c2.53-4.381,6.063-7.993,9.693-9.909c1.785-0.942,5.175-2.291,7.83-0.761
	c2.655,1.533,3.179,5.145,3.256,7.161C160.182,401.803,158.821,406.668,156.292,411.049z M160.771,383.612
	c-1.785-1.031-3.749-1.604-5.821-1.737v-9.103l42.512-24.507V367.6L164.36,386.71C163.349,385.473,162.164,384.415,160.771,383.612z
	 M264.104,348.158c-5.305,9.186-13.492,12.995-17.522,10.67c-4.03-2.327-4.825-11.323,0.479-20.51h0
	c2.529-4.381,6.062-7.993,9.692-9.909c1.202-0.635,3.131-1.454,5.074-1.454c0.942,0,1.888,0.193,2.755,0.693
	c2.655,1.533,3.18,5.145,3.256,7.161C267.995,338.912,266.634,343.778,264.104,348.158z M301.627,327.019
	c-5.305,9.186-13.492,12.995-17.522,10.67c-4.031-2.327-4.825-11.323,0.479-20.51h0c2.529-4.381,6.062-7.993,9.692-9.909
	c1.202-0.635,3.131-1.454,5.074-1.454c0.942,0,1.888,0.193,2.755,0.693c2.655,1.533,3.18,5.145,3.256,7.161
	C305.518,317.773,304.157,322.638,301.627,327.019z M311.365,301.854l-1.592,0.919c-1.026-1.278-2.238-2.367-3.666-3.192
	c-4.436-2.563-9.963-2.344-15.565,0.613c-4.999,2.64-9.575,7.251-12.886,12.984h0c-2.012,3.484-3.363,7.053-4.117,10.508
	l-1.001,0.578c-1.079-1.439-2.394-2.643-3.954-3.544c-4.436-2.562-9.963-2.344-15.565,0.613c-4.999,2.64-9.575,7.251-12.885,12.984
	c-2.126,3.682-3.519,7.461-4.242,11.097l-30.43,17.567v-19.33l105.902-61.051V301.854z M352.036,259.155l13.04-7.517v15.046
	L352.036,259.155z M407.218,265.803c-2.529,4.381-6.062,7.993-9.692,9.909c-1.785,0.942-5.174,2.292-7.83,0.761
	c-2.655-1.533-3.18-5.145-3.256-7.161c-0.156-4.103,1.206-8.968,3.735-13.349c5.305-9.186,13.491-12.996,17.522-10.67
	C411.728,247.62,412.522,256.616,407.218,265.803z M444.742,244.663c-2.53,4.381-6.063,7.993-9.693,9.909
	c-1.785,0.941-5.174,2.292-7.83,0.761c-2.655-1.533-3.179-5.145-3.256-7.161c-0.155-4.103,1.206-8.968,3.735-13.349h0
	c5.305-9.186,13.491-12.998,17.522-10.67C449.25,226.481,450.045,235.477,444.742,244.663z M454.479,219.498l-1.595,0.92
	c-1.016-1.27-2.225-2.362-3.663-3.193c-8.664-5.002-21.16,0.973-28.45,13.598h0c-1.959,3.394-3.34,6.975-4.109,10.504l-1.007,0.581
	c-1.068-1.429-2.383-2.635-3.956-3.543c-8.664-5.002-21.16,0.973-28.45,13.598c-2.075,3.593-3.518,7.396-4.254,11.126l-5.917,3.467
	v-19.53l81.402-46.927V219.498z M154.95,363.537v-88.48L466.377,95.527v88.478L154.95,363.537z"/>
<g>
</g>
<g>
</g>
<g>
</g>
<g>
</g>
<g>
</g>
<g>
</g>
<g>
</g>
<g>
</g>
<g>
</g>
<g>
</g>
<g>
</g>
<g>
</g>
<g>
</g>
<g>
</g>
<g>
</g>
</svg>
