<?xml version="1.0" encoding="iso-8859-1"?>
<!-- Generator: Adobe Illustrator 18.0.0, SVG Export Plug-In . SVG Version: 6.00 Build 0)  -->
<!DOCTYPE svg PUBLIC "-//W3C//DTD SVG 1.1//EN" "http://www.w3.org/Graphics/SVG/1.1/DTD/svg11.dtd">
<svg version="1.1" id="Capa_1" xmlns="http://www.w3.org/2000/svg" xmlns:xlink="http://www.w3.org/1999/xlink" x="0px" y="0px"
	 viewBox="0 0 473.875 473.875" style="enable-background:new 0 0 473.875 473.875;" xml:space="preserve">
<path d="M471.875,78.682L349.883,8.249c-1.237-0.715-2.763-0.715-4,0L91.798,154.953c-1.238,0.714-2,2.035-2,3.464v38.905
	l-74.274,42.326c-1.056,0.602-1.765,1.645-1.96,2.821c0,0-13.564,81.151-13.564,81.615v67.657c0,1.429,0.762,2.75,2,3.464
	l121.981,70.421c0.624,0.36,1.313,0.535,1.997,0.535c0.689,0,1.365-0.194,1.973-0.539l0.007,0.012l55.802-31.696
	c0.393,7.978,3.623,14.608,9.583,18.049c2.724,1.572,5.738,2.319,8.888,2.319c10.298,0,22.036-7.993,29.702-21.271
	c6.1-10.565,8.005-21.683,5.939-30.281l101.323-58.492c0.597,7.548,3.804,13.787,9.523,17.089c2.724,1.572,5.738,2.319,8.888,2.319
	c10.299,0,22.037-7.993,29.703-21.271c4.677-8.1,6.891-16.527,6.739-23.893c1.371,5.558,4.373,9.853,8.747,12.378
	c2.676,1.545,5.669,2.315,8.85,2.315c3.768,0,7.798-1.081,11.875-3.233c6.915-3.65,13.259-10.054,17.866-18.033
	c4.607-7.979,6.981-16.676,6.685-24.489c-0.075-1.982-0.324-3.852-0.726-5.605l7.383-4.262c1.238-0.714,2-2.035,2-3.464v-38.939
	l15.148-8.745c1.238-0.715,2-2.035,2-3.464V82.146C473.875,80.717,473.113,79.397,471.875,78.682z M347.883,16.332l113.992,65.814
	L215.779,224.22l-113.981-65.803L347.883,16.332z M97.798,165.345l113.981,65.803v32.029L97.798,197.364V165.345z M93.762,204.271
	l113.955,65.798L139.5,308.934L25.544,243.146L93.762,204.271z M91.392,437.575l-52.8-30.482v-25.623l52.8,30.482V437.575z
	 M97.392,406.177l-60.8-35.1c-1.238-0.714-2.763-0.714-4,0c-1.238,0.714-2,2.035-2,3.464v8.326L8,369.282v-38.27l113.983,65.806
	v41.01l-22.591-13.589v-14.598C99.392,408.213,98.629,406.892,97.392,406.177z M132.282,333.291L17.585,267.075l2.92-17.6
	l114.597,66.159L132.282,333.291z M130.931,341.749l-7.458,46.692L8.465,322.043l7.722-46.538L130.931,341.749z M143.133,316.071
	l18.957-10.8v63.809l-30.21,17.441L143.133,316.071z M8,378.617l22.591,13.586v10.271L8,389.431V378.617z M99.392,442.193v-8.618
	l22.591,13.589v8.071L99.392,442.193z M184.568,424.28l-54.585,31.004v-58.429l38.108-22.001c1.238-0.715,2-2.035,2-3.464v-70.676
	l41.688-23.75v112.533c-1.145,0.438-2.297,0.952-3.454,1.562c-6.915,3.65-13.26,10.055-17.866,18.034
	C187.545,414.14,185.593,419.313,184.568,424.28z M225.005,429.036c-7.51,13.007-20.179,20.342-27.663,16.023
	c-7.485-4.322-7.465-18.961,0.044-31.968c3.863-6.69,9.074-12.003,14.673-14.959c2.891-1.526,5.653-2.295,8.123-2.295
	c1.799,0,3.443,0.409,4.868,1.231C232.535,401.39,232.515,416.03,225.005,429.036z M229.05,390.14
	c-2.793-1.613-5.935-2.371-9.271-2.3v-15.871l64.796-37.407v31.996l-49.908,28.811C233.193,393.232,231.322,391.452,229.05,390.14z
	 M380.381,338.401c-7.509,13.006-20.175,20.345-27.663,16.023c-7.485-4.322-7.464-18.961,0.045-31.968
	c6.045-10.469,15.431-17.266,22.767-17.266c1.778,0,3.436,0.399,4.896,1.242C387.911,310.754,387.89,325.394,380.381,338.401z
	 M434.458,307.935c-3.863,6.69-9.074,12.003-14.673,14.958c-4.997,2.638-9.61,3.016-12.99,1.064
	c-3.38-1.951-5.359-6.135-5.574-11.782c-0.24-6.327,1.755-13.496,5.618-20.186c3.863-6.69,9.074-12.003,14.673-14.958
	c2.891-1.526,5.653-2.295,8.122-2.295c1.799,0,3.443,0.409,4.868,1.231c3.38,1.951,5.359,6.135,5.573,11.781
	C440.315,294.076,438.32,301.245,434.458,307.935z M448.727,271.805l-4.514,2.606c-1.503-2.227-3.415-4.046-5.711-5.371
	c-5.847-3.376-13.208-3.05-20.725,0.917c-6.915,3.65-13.26,10.054-17.866,18.033c-2.878,4.985-4.885,10.251-5.913,15.406l-3.5,2.02
	c-1.535-2.444-3.561-4.462-6.072-5.912c-11.631-6.711-28.58,1.612-38.591,18.952c-3.125,5.412-5.151,10.971-6.106,16.262
	l-47.154,27.221v-31.996l156.152-90.148V271.805z M219.779,362.731V231.148L465.875,89.074v131.583L219.779,362.731z"/>
<g>
</g>
<g>
</g>
<g>
</g>
<g>
</g>
<g>
</g>
<g>
</g>
<g>
</g>
<g>
</g>
<g>
</g>
<g>
</g>
<g>
</g>
<g>
</g>
<g>
</g>
<g>
</g>
<g>
</g>
</svg>
